<?xml version="1.0" encoding="utf-8"?>
<svg version="1.1" id="Layer_1" xmlns="http://www.w3.org/2000/svg" xmlns:xlink="http://www.w3.org/1999/xlink" x="0px" y="0px"
	 width="595.281px" height="511.048px" viewBox="0 91.011 595.281 511.048" enable-background="new 0 91.011 595.281 511.048"
	 xml:space="preserve">
<g>
	<path d="M351.873,313.745c-61.413,0-111.367-49.954-111.367-111.367S290.459,91.011,351.873,91.011
		c61.414,0,111.367,49.953,111.367,111.366S413.287,313.745,351.873,313.745z M351.873,115.814
		c-47.734,0-86.563,38.83-86.563,86.563c0,47.734,38.829,86.564,86.563,86.564s86.564-38.83,86.564-86.564
		C438.437,154.644,399.607,115.814,351.873,115.814z"/>
	<path d="M89.379,344.861C40.095,344.861,0,304.766,0,255.482s40.095-89.379,89.379-89.379s89.379,40.095,89.379,89.379
		S138.663,344.861,89.379,344.861z M89.379,190.906c-35.605,0-64.576,28.971-64.576,64.576s28.97,64.575,64.576,64.575
		c35.605,0,64.576-28.97,64.576-64.575S124.984,190.906,89.379,190.906z"/>
	<path d="M274.263,602.059c-36.437,0-66.089-29.652-66.089-66.101c0-36.437,29.652-66.076,66.089-66.076
		c36.436,0,66.076,29.652,66.076,66.076C340.339,572.407,310.699,602.059,274.263,602.059z M274.263,494.674
		c-22.757,0-41.285,18.516-41.285,41.272c0,22.77,18.528,41.298,41.285,41.298c22.757,0,41.273-18.528,41.273-41.298
		C315.537,513.189,297.02,494.674,274.263,494.674z"/>
	<path d="M529.191,431.685c-36.436,0-66.088-29.652-66.088-66.089s29.652-66.089,66.088-66.089c36.438,0,66.09,29.652,66.09,66.089
		S565.628,431.685,529.191,431.685z M529.191,324.311c-22.77,0-41.285,18.528-41.285,41.285c0,22.77,18.516,41.285,41.285,41.285
		s41.285-18.516,41.285-41.285C570.476,342.84,551.96,324.311,529.191,324.311z"/>
	<path d="M97.651,266.011c-5.779,0-10.938-4.056-12.141-9.935c-1.364-6.709,2.964-13.257,9.686-14.621l155.244-31.587
		c6.697-1.39,13.257,2.964,14.622,9.686c1.364,6.709-2.964,13.257-9.686,14.621l-155.244,31.588
		C99.3,265.925,98.469,266.011,97.651,266.011z"/>
	<path d="M283.304,535.413c-0.793,0-1.612-0.074-2.431-0.248c-6.722-1.327-11.087-7.862-9.748-14.584l44.659-224.669
		c1.314-6.722,7.762-11.051,14.584-9.748c6.709,1.339,11.086,7.862,9.734,14.584l-44.646,224.682
		C294.279,531.333,289.095,535.413,283.304,535.413z"/>
	<path d="M517.349,369.168c-2.977,0-5.953-1.066-8.348-3.224l-94.289-85.671c-5.061-4.613-5.432-12.451-0.832-17.523
		c4.613-5.061,12.451-5.433,17.523-0.844l94.291,85.671c5.059,4.613,5.432,12.451,0.83,17.523
		C524.082,367.803,520.708,369.168,517.349,369.168z"/>
</g>
</svg>
